<svg xmlns="http://www.w3.org/2000/svg" width="1680" height="1520" viewBox="0 0 1680 1520">
<rect width="1680" height="1520" fill="white"/>
<text x="535" y="48" font-family="Arial, sans-serif" font-size="22" font-weight="700" fill="#0b2545">UML class diagram: network server</text>
<polyline points="265,560 735,455 735,405" fill="none" stroke="#4a5568" stroke-width="3"/>
<polygon points="735,405 746,423 724,423" fill="#ffffff" stroke="#4a5568" stroke-width="2"/>
<polyline points="805,560 805,405" fill="none" stroke="#4a5568" stroke-width="3"/>
<polygon points="805,405 816,423 794,423" fill="#ffffff" stroke="#4a5568" stroke-width="2"/>
<polyline points="1345,560 875,455 875,405" fill="none" stroke="#4a5568" stroke-width="3"/>
<polygon points="875,405 886,423 864,423" fill="#ffffff" stroke="#4a5568" stroke-width="2"/>
<polyline points="640,262 440,272" fill="none" stroke="#4a5568" stroke-width="3"/>
<polygon points="640,262 621,252 604,263 622,272" fill="#4a5568" stroke="#4a5568" stroke-width="2"/>
<polyline points="1345,560 1320,355" fill="none" stroke="#4a5568" stroke-width="3"/>
<polygon points="1345,560 1352,540 1340,524 1332,543" fill="#4a5568" stroke="#4a5568" stroke-width="2"/>
<polyline points="610,972 460,970" fill="none" stroke="#4a5568" stroke-width="3"/>
<polygon points="610,972 592,961 574,971 591,981" fill="#4a5568" stroke="#4a5568" stroke-width="2"/>
<polyline points="1160,957 1020,957" fill="none" stroke="#4a5568" stroke-width="3"/>
<polygon points="1160,957 1142,947 1124,957 1142,967" fill="#4a5568" stroke="#4a5568" stroke-width="2"/>
<polyline points="925,1240 1335,1160 1420,1090" fill="none" stroke="#4a5568" stroke-width="3"/>
<polygon points="925,1240 944,1246 960,1233 940,1226" fill="#4a5568" stroke="#4a5568" stroke-width="2"/>
<polyline points="640,1355 470,1355" fill="none" stroke="#4a5568" stroke-width="3"/>
<polygon points="640,1355 622,1345 604,1355 622,1365" fill="#4a5568" stroke="#4a5568" stroke-width="2"/>
<polyline points="1170,1282 930,1165 895,1065" fill="none" stroke="#4a5568" stroke-width="3" stroke-dasharray="14 9"/>
<polygon points="895,1065 906,1076 893,1081" fill="#4a5568"/>
<polyline points="420,632 645,637" fill="none" stroke="#4a5568" stroke-width="3" stroke-dasharray="14 9"/>
<polygon points="645,637 629,643 630,629" fill="#4a5568"/>
<polyline points="965,637 1170,647" fill="none" stroke="#4a5568" stroke-width="3" stroke-dasharray="14 9"/>
<polygon points="1170,647 1154,653 1155,639" fill="#4a5568"/>
<rect x="640" y="190" width="330" height="215" rx="12" fill="#ffffff" stroke="#1f2937" stroke-width="2"/>
<rect x="640" y="190" width="330" height="50" rx="12" fill="#e8eef5" stroke="#1f2937" stroke-width="2"/>
<text x="654" y="212" font-family="Arial, sans-serif" font-size="17" font-weight="700" fill="#0b2545">Packet</text>
<text x="654" y="232" font-family="Arial, sans-serif" font-size="13" font-weight="400" fill="#4b5563">&lt;&lt;abstract&gt;&gt;</text>
<line x1="640" y1="240" x2="970" y2="240" stroke="#1f2937" stroke-width="2"/>
<text x="654" y="266" font-family="Arial, sans-serif" font-size="14" font-weight="normal" fill="#111827">- senderAddress_: string</text>
<text x="654" y="288" font-family="Arial, sans-serif" font-size="14" font-weight="normal" fill="#111827">- recipientAddress_: string</text>
<text x="654" y="310" font-family="Arial, sans-serif" font-size="14" font-weight="normal" fill="#111827">- message_: MessageDescriptor</text>
<line x1="640" y1="336" x2="970" y2="336" stroke="#9ca3af" stroke-width="1"/>
<text x="654" y="358" font-family="Arial, sans-serif" font-size="14" font-weight="normal" fill="#111827">+ type(): PacketType</text>
<text x="654" y="380" font-family="Arial, sans-serif" font-size="14" font-weight="normal" fill="#111827">+ describe(): string</text>
<text x="654" y="402" font-family="Arial, sans-serif" font-size="14" font-weight="normal" fill="#111827">+ senderAddress(): string</text>
<rect x="120" y="210" width="320" height="145" rx="12" fill="#ffffff" stroke="#1f2937" stroke-width="2"/>
<rect x="120" y="210" width="320" height="50" rx="12" fill="#e8eef5" stroke="#1f2937" stroke-width="2"/>
<text x="134" y="232" font-family="Arial, sans-serif" font-size="17" font-weight="700" fill="#0b2545">MessageDescriptor</text>
<text x="134" y="252" font-family="Arial, sans-serif" font-size="13" font-weight="400" fill="#4b5563">&lt;&lt;model&gt;&gt;</text>
<line x1="120" y1="260" x2="440" y2="260" stroke="#1f2937" stroke-width="2"/>
<text x="134" y="286" font-family="Arial, sans-serif" font-size="14" font-weight="normal" fill="#111827">- content_: string</text>
<line x1="120" y1="312" x2="440" y2="312" stroke="#9ca3af" stroke-width="1"/>
<text x="134" y="334" font-family="Arial, sans-serif" font-size="14" font-weight="normal" fill="#111827">+ length(): size_t</text>
<text x="134" y="356" font-family="Arial, sans-serif" font-size="14" font-weight="normal" fill="#111827">+ content(): string</text>
<rect x="1160" y="210" width="320" height="145" rx="12" fill="#ffffff" stroke="#1f2937" stroke-width="2"/>
<rect x="1160" y="210" width="320" height="50" rx="12" fill="#e8eef5" stroke="#1f2937" stroke-width="2"/>
<text x="1174" y="232" font-family="Arial, sans-serif" font-size="17" font-weight="700" fill="#0b2545">LinkDescriptor</text>
<text x="1174" y="252" font-family="Arial, sans-serif" font-size="13" font-weight="400" fill="#4b5563">&lt;&lt;model&gt;&gt;</text>
<line x1="1160" y1="260" x2="1480" y2="260" stroke="#1f2937" stroke-width="2"/>
<text x="1174" y="286" font-family="Arial, sans-serif" font-size="14" font-weight="normal" fill="#111827">- protocol_: ProtocolType</text>
<text x="1174" y="308" font-family="Arial, sans-serif" font-size="14" font-weight="normal" fill="#111827">- serverName_: string</text>
<line x1="1160" y1="334" x2="1480" y2="334" stroke="#9ca3af" stroke-width="1"/>
<text x="1174" y="356" font-family="Arial, sans-serif" font-size="14" font-weight="normal" fill="#111827">+ describe(): string</text>
<rect x="110" y="560" width="310" height="165" rx="12" fill="#ffffff" stroke="#1f2937" stroke-width="2"/>
<rect x="110" y="560" width="310" height="50" rx="12" fill="#e8eef5" stroke="#1f2937" stroke-width="2"/>
<text x="124" y="582" font-family="Arial, sans-serif" font-size="17" font-weight="700" fill="#0b2545">MailPacket</text>
<text x="124" y="602" font-family="Arial, sans-serif" font-size="13" font-weight="400" fill="#4b5563">&lt;&lt;model&gt;&gt;</text>
<line x1="110" y1="610" x2="420" y2="610" stroke="#1f2937" stroke-width="2"/>
<text x="124" y="636" font-family="Arial, sans-serif" font-size="14" font-weight="normal" fill="#111827">- userName_: string</text>
<line x1="110" y1="662" x2="420" y2="662" stroke="#9ca3af" stroke-width="1"/>
<text x="124" y="684" font-family="Arial, sans-serif" font-size="14" font-weight="normal" fill="#111827">+ toFilePacket(): FilePacket</text>
<text x="124" y="706" font-family="Arial, sans-serif" font-size="14" font-weight="normal" fill="#111827">+ describe(): string</text>
<rect x="645" y="560" width="320" height="175" rx="12" fill="#ffffff" stroke="#1f2937" stroke-width="2"/>
<rect x="645" y="560" width="320" height="50" rx="12" fill="#e8eef5" stroke="#1f2937" stroke-width="2"/>
<text x="659" y="582" font-family="Arial, sans-serif" font-size="17" font-weight="700" fill="#0b2545">FilePacket</text>
<text x="659" y="602" font-family="Arial, sans-serif" font-size="13" font-weight="400" fill="#4b5563">&lt;&lt;model&gt;&gt;</text>
<line x1="645" y1="610" x2="965" y2="610" stroke="#1f2937" stroke-width="2"/>
<text x="659" y="636" font-family="Arial, sans-serif" font-size="14" font-weight="normal" fill="#111827">- codeType_: CodeType</text>
<text x="659" y="658" font-family="Arial, sans-serif" font-size="14" font-weight="normal" fill="#111827">- infoType_: InfoType</text>
<line x1="645" y1="684" x2="965" y2="684" stroke="#9ca3af" stroke-width="1"/>
<text x="659" y="706" font-family="Arial, sans-serif" font-size="14" font-weight="normal" fill="#111827">+ toHypertextPacket(): HypertextPacket</text>
<text x="659" y="728" font-family="Arial, sans-serif" font-size="14" font-weight="normal" fill="#111827">+ codeType(): CodeType</text>
<rect x="1170" y="560" width="350" height="195" rx="12" fill="#ffffff" stroke="#1f2937" stroke-width="2"/>
<rect x="1170" y="560" width="350" height="50" rx="12" fill="#e8eef5" stroke="#1f2937" stroke-width="2"/>
<text x="1184" y="582" font-family="Arial, sans-serif" font-size="17" font-weight="700" fill="#0b2545">HypertextPacket</text>
<text x="1184" y="602" font-family="Arial, sans-serif" font-size="13" font-weight="400" fill="#4b5563">&lt;&lt;model&gt;&gt;</text>
<line x1="1170" y1="610" x2="1520" y2="610" stroke="#1f2937" stroke-width="2"/>
<text x="1184" y="636" font-family="Arial, sans-serif" font-size="14" font-weight="normal" fill="#111827">- codeType_: CodeType</text>
<text x="1184" y="658" font-family="Arial, sans-serif" font-size="14" font-weight="normal" fill="#111827">- infoType_: InfoType</text>
<text x="1184" y="680" font-family="Arial, sans-serif" font-size="14" font-weight="normal" fill="#111827">- links_: vector&lt;LinkDescriptor&gt;</text>
<line x1="1170" y1="706" x2="1520" y2="706" stroke="#9ca3af" stroke-width="1"/>
<text x="1184" y="728" font-family="Arial, sans-serif" font-size="14" font-weight="normal" fill="#111827">+ linkCount(): size_t</text>
<text x="1184" y="750" font-family="Arial, sans-serif" font-size="14" font-weight="normal" fill="#111827">+ links(): vector&lt;LinkDescriptor&gt;</text>
<rect x="80" y="880" width="380" height="180" rx="12" fill="#ffffff" stroke="#1f2937" stroke-width="2"/>
<rect x="80" y="880" width="380" height="50" rx="12" fill="#e8eef5" stroke="#1f2937" stroke-width="2"/>
<text x="94" y="902" font-family="Arial, sans-serif" font-size="17" font-weight="700" fill="#0b2545">HashTable&lt;Key, Value&gt;</text>
<text x="94" y="922" font-family="Arial, sans-serif" font-size="13" font-weight="400" fill="#4b5563">&lt;&lt;template container&gt;&gt;</text>
<line x1="80" y1="930" x2="460" y2="930" stroke="#1f2937" stroke-width="2"/>
<text x="94" y="956" font-family="Arial, sans-serif" font-size="14" font-weight="normal" fill="#111827">- buckets_: unique_ptr&lt;Bucket[]&gt;</text>
<text x="94" y="978" font-family="Arial, sans-serif" font-size="14" font-weight="normal" fill="#111827">- size_: size_t</text>
<line x1="80" y1="1004" x2="460" y2="1004" stroke="#9ca3af" stroke-width="1"/>
<text x="94" y="1026" font-family="Arial, sans-serif" font-size="14" font-weight="normal" fill="#111827">+ insert(key, value): bool</text>
<text x="94" y="1048" font-family="Arial, sans-serif" font-size="14" font-weight="normal" fill="#111827">+ erase(key): bool</text>
<text x="94" y="1070" font-family="Arial, sans-serif" font-size="14" font-weight="normal" fill="#111827">+ begin()/end(): iterator</text>
<rect x="610" y="880" width="410" height="185" rx="12" fill="#ffffff" stroke="#1f2937" stroke-width="2"/>
<rect x="610" y="880" width="410" height="50" rx="12" fill="#e8eef5" stroke="#1f2937" stroke-width="2"/>
<text x="624" y="902" font-family="Arial, sans-serif" font-size="17" font-weight="700" fill="#0b2545">TransmissionTable</text>
<text x="624" y="922" font-family="Arial, sans-serif" font-size="13" font-weight="400" fill="#4b5563">&lt;&lt;model&gt;&gt;</text>
<line x1="610" y1="930" x2="1020" y2="930" stroke="#1f2937" stroke-width="2"/>
<text x="624" y="956" font-family="Arial, sans-serif" font-size="14" font-weight="normal" fill="#111827">- table_: HashTable&lt;PacketKey, shared_ptr&lt;Packet&gt;&gt;</text>
<line x1="610" y1="982" x2="1020" y2="982" stroke="#9ca3af" stroke-width="1"/>
<text x="624" y="1004" font-family="Arial, sans-serif" font-size="14" font-weight="normal" fill="#111827">+ insert(packet): bool</text>
<text x="624" y="1026" font-family="Arial, sans-serif" font-size="14" font-weight="normal" fill="#111827">+ find(recipient, type): Packet</text>
<text x="624" y="1048" font-family="Arial, sans-serif" font-size="14" font-weight="normal" fill="#111827">+ remove(recipient, type): bool</text>
<rect x="1160" y="875" width="400" height="215" rx="12" fill="#ffffff" stroke="#1f2937" stroke-width="2"/>
<rect x="1160" y="875" width="400" height="50" rx="12" fill="#e8eef5" stroke="#1f2937" stroke-width="2"/>
<text x="1174" y="897" font-family="Arial, sans-serif" font-size="17" font-weight="700" fill="#0b2545">ServerDescriptor</text>
<text x="1174" y="917" font-family="Arial, sans-serif" font-size="13" font-weight="400" fill="#4b5563">&lt;&lt;model&gt;&gt;</text>
<line x1="1160" y1="925" x2="1560" y2="925" stroke="#1f2937" stroke-width="2"/>
<text x="1174" y="951" font-family="Arial, sans-serif" font-size="14" font-weight="normal" fill="#111827">- networkName_: string</text>
<text x="1174" y="973" font-family="Arial, sans-serif" font-size="14" font-weight="normal" fill="#111827">- networkAddress_: string</text>
<text x="1174" y="995" font-family="Arial, sans-serif" font-size="14" font-weight="normal" fill="#111827">- transmissions_: TransmissionTable</text>
<line x1="1160" y1="1021" x2="1560" y2="1021" stroke="#9ca3af" stroke-width="1"/>
<text x="1174" y="1043" font-family="Arial, sans-serif" font-size="14" font-weight="normal" fill="#111827">+ addPacket(packet): bool</text>
<text x="1174" y="1065" font-family="Arial, sans-serif" font-size="14" font-weight="normal" fill="#111827">+ selectByRecipientPriority()</text>
<text x="1174" y="1087" font-family="Arial, sans-serif" font-size="14" font-weight="normal" fill="#111827">+ percentagesParallel()</text>
<rect x="120" y="1250" width="350" height="175" rx="12" fill="#ffffff" stroke="#1f2937" stroke-width="2"/>
<rect x="120" y="1250" width="350" height="50" rx="12" fill="#e8eef5" stroke="#1f2937" stroke-width="2"/>
<text x="134" y="1272" font-family="Arial, sans-serif" font-size="17" font-weight="700" fill="#0b2545">ConsoleView</text>
<text x="134" y="1292" font-family="Arial, sans-serif" font-size="13" font-weight="400" fill="#4b5563">&lt;&lt;view&gt;&gt;</text>
<line x1="120" y1="1300" x2="470" y2="1300" stroke="#1f2937" stroke-width="2"/>
<text x="134" y="1326" font-family="Arial, sans-serif" font-size="14" font-weight="normal" fill="#111827">- input_: istream</text>
<text x="134" y="1348" font-family="Arial, sans-serif" font-size="14" font-weight="normal" fill="#111827">- output_: ostream</text>
<line x1="120" y1="1374" x2="470" y2="1374" stroke="#9ca3af" stroke-width="1"/>
<text x="134" y="1396" font-family="Arial, sans-serif" font-size="14" font-weight="normal" fill="#111827">+ showMenu()</text>
<text x="134" y="1418" font-family="Arial, sans-serif" font-size="14" font-weight="normal" fill="#111827">+ readPacketType()</text>
<text x="134" y="1440" font-family="Arial, sans-serif" font-size="14" font-weight="normal" fill="#111827">+ showPercentages()</text>
<rect x="640" y="1240" width="390" height="195" rx="12" fill="#ffffff" stroke="#1f2937" stroke-width="2"/>
<rect x="640" y="1240" width="390" height="50" rx="12" fill="#e8eef5" stroke="#1f2937" stroke-width="2"/>
<text x="654" y="1262" font-family="Arial, sans-serif" font-size="17" font-weight="700" fill="#0b2545">ServerController</text>
<text x="654" y="1282" font-family="Arial, sans-serif" font-size="13" font-weight="400" fill="#4b5563">&lt;&lt;controller&gt;&gt;</text>
<line x1="640" y1="1290" x2="1030" y2="1290" stroke="#1f2937" stroke-width="2"/>
<text x="654" y="1316" font-family="Arial, sans-serif" font-size="14" font-weight="normal" fill="#111827">- server_: ServerDescriptor</text>
<text x="654" y="1338" font-family="Arial, sans-serif" font-size="14" font-weight="normal" fill="#111827">- view_: ConsoleView</text>
<line x1="640" y1="1364" x2="1030" y2="1364" stroke="#9ca3af" stroke-width="1"/>
<text x="654" y="1386" font-family="Arial, sans-serif" font-size="14" font-weight="normal" fill="#111827">+ run()</text>
<text x="654" y="1408" font-family="Arial, sans-serif" font-size="14" font-weight="normal" fill="#111827">- addPacket()</text>
<text x="654" y="1430" font-family="Arial, sans-serif" font-size="14" font-weight="normal" fill="#111827">- convertPacket()</text>
<rect x="1170" y="1250" width="390" height="135" rx="12" fill="#ffffff" stroke="#1f2937" stroke-width="2"/>
<rect x="1170" y="1250" width="390" height="50" rx="12" fill="#e8eef5" stroke="#1f2937" stroke-width="2"/>
<text x="1184" y="1272" font-family="Arial, sans-serif" font-size="17" font-weight="700" fill="#0b2545">PacketStatistics</text>
<text x="1184" y="1292" font-family="Arial, sans-serif" font-size="13" font-weight="400" fill="#4b5563">&lt;&lt;service&gt;&gt;</text>
<line x1="1170" y1="1300" x2="1560" y2="1300" stroke="#1f2937" stroke-width="2"/>
<line x1="1170" y1="1330" x2="1560" y2="1330" stroke="#9ca3af" stroke-width="1"/>
<text x="1184" y="1352" font-family="Arial, sans-serif" font-size="14" font-weight="normal" fill="#111827">+ calculateSequential(table)</text>
<text x="1184" y="1374" font-family="Arial, sans-serif" font-size="14" font-weight="normal" fill="#111827">+ calculateParallel(table)</text>
</svg>